<svg width="21" height="18" viewBox="0 0 21 18" fill="none" xmlns="http://www.w3.org/2000/svg">
<path d="M9.0815 0.720611C9.42822 -0.24021 10.7871 -0.240211 11.1338 0.72061L12.8398 5.44819C12.9958 5.88062 13.4062 6.16881 13.8659 6.16881H19.1224C20.2067 6.16881 20.627 7.57906 19.7196 8.17264L15.6707 10.8213C15.2477 11.0981 15.0702 11.6291 15.2418 12.1046L16.8335 16.5153C17.189 17.5006 16.0867 18.372 15.2101 17.7986L10.7049 14.8513C10.3421 14.614 9.87321 14.614 9.51043 14.8513L5.00516 17.7985C4.12861 18.372 3.02627 17.5006 3.38181 16.5153L4.97349 12.1046C5.14506 11.6291 4.96755 11.0981 4.54456 10.8213L0.495669 8.17264C-0.411689 7.57906 0.00861788 6.16881 1.09288 6.16881H6.34936C6.80908 6.16881 7.21946 5.88062 7.3755 5.44819L9.0815 0.720611Z" fill="#FF8C38"/>
</svg>
